<svg height="1024" node-id="1" sillyvg="true" template-height="1024" template-width="1024" version="1.1" viewBox="0 0 1024 1024" width="1024" xmlns="http://www.w3.org/2000/svg" xmlns:xlink="http://www.w3.org/1999/xlink"><defs node-id="61"><linearGradient gradientUnits="objectBoundingBox" id="SVGID_1_" node-id="6" spreadMethod="pad" x1="122.4127" x2="908.537" y1="662.945" y2="662.945"><stop offset="0.005154639" stop-color="#8574fd"/><stop offset="1" stop-color="#715ef5"/></linearGradient><linearGradient gradientUnits="objectBoundingBox" id="SVGID_2_" node-id="12" spreadMethod="pad" x1="122.4127" x2="908.537" y1="401.6724" y2="401.6724"><stop offset="0.005154639" stop-color="#c5bafe"/><stop offset="1" stop-color="#e9e6fc"/></linearGradient><linearGradient gradientUnits="objectBoundingBox" id="SVGID_3_" node-id="22" spreadMethod="pad" x1="679.1464" x2="908.5397" y1="645.166" y2="645.166"><stop offset="0.005154639" stop-color="#7263f3"/><stop offset="1" stop-color="#5042d3"/></linearGradient><linearGradient gradientUnits="objectBoundingBox" id="SVGID_4_" node-id="26" spreadMethod="pad" x1="122.4127" x2="518.5501" y1="653.5696" y2="653.5696"><stop offset="0.005154639" stop-color="#7263f3"/><stop offset="1" stop-color="#5042d3"/></linearGradient><linearGradient gradientUnits="objectBoundingBox" id="SVGID_5_" node-id="30" spreadMethod="pad" x1="143.8255" x2="197.3576" y1="297.8922" y2="297.8922"><stop offset="0.005154639" stop-color="#c5bafe"/><stop offset="1" stop-color="#e9e6fc"/></linearGradient><linearGradient gradientUnits="objectBoundingBox" id="SVGID_6_" node-id="34" spreadMethod="pad" x1="796.9169" x2="839.7426" y1="388.8968" y2="388.8968"><stop offset="0.005154639" stop-color="#c5bafe"/><stop offset="1" stop-color="#e9e6fc"/></linearGradient><linearGradient gradientUnits="objectBoundingBox" id="SVGID_7_" node-id="38" spreadMethod="pad" x1="390.0731" x2="432.8988" y1="164.062" y2="164.062"><stop offset="0.005154639" stop-color="#c5bafe"/><stop offset="1" stop-color="#e9e6fc"/></linearGradient><linearGradient gradientUnits="objectBoundingBox" id="SVGID_8_" node-id="42" spreadMethod="pad" x1="515.4749" x2="668.4399" y1="743.6038" y2="743.6038"><stop offset="0" stop-color="#5042d3"/><stop offset="0.9948" stop-color="#6353e2"/></linearGradient><linearGradient gradientUnits="objectBoundingBox" id="SVGID_9_" node-id="49" spreadMethod="pad" x1="314.2209" x2="721.972" y1="393.3879" y2="393.3879"><stop offset="0.005154639" stop-color="#8b7ffd"/><stop offset="1" stop-color="#8a80fb"/></linearGradient></defs><g node-id="181"><path d="M 122.40 401.70 L 122.40 739.30 C 122.40 841.50 298.40 924.30 515.50 924.30 C 732.60 924.30 908.60 841.50 908.60 739.30 L 908.60 401.70 L 122.40 401.70 Z" fill="url(#SVGID_1_)" fill-rule="nonzero" group-id="1" node-id="122" stroke="none" target-height="522.6" target-width="786.19995" target-x="122.4" target-y="401.7"/><path d="M 515.50 798.10 C 298.40 798.10 122.40 715.30 122.40 613.10 L 122.40 647.80 C 122.40 750.00 298.40 832.80 515.50 832.80 C 732.60 832.80 908.60 750.00 908.60 647.80 L 908.60 613.10 C 908.50 715.30 732.60 798.10 515.50 798.10 Z" fill="#7c72ed" fill-rule="nonzero" group-id="1" node-id="124" stroke="none" target-height="219.69995" target-width="786.19995" target-x="122.4" target-y="613.1"/><path d="M 515.50 659.30 C 298.40 659.30 122.40 576.50 122.40 474.30 L 122.40 509.00 C 122.40 611.20 298.40 694.00 515.50 694.00 C 732.60 694.00 908.60 611.20 908.60 509.00 L 908.60 474.30 C 908.50 576.50 732.60 659.30 515.50 659.30 Z" fill="#7c72ed" fill-rule="nonzero" group-id="1" node-id="126" stroke="none" target-height="219.69998" target-width="786.19995" target-x="122.4" target-y="474.30002"/><path d="M 908.60 401.70 C 908.60 450.77 867.18 497.82 793.46 532.51 C 719.74 567.21 619.76 586.70 515.50 586.70 C 411.24 586.70 311.26 567.21 237.54 532.51 C 163.82 497.82 122.40 450.77 122.40 401.70 C 122.40 352.63 163.82 305.58 237.54 270.89 C 311.26 236.19 411.24 216.70 515.50 216.70 C 619.76 216.70 719.74 236.19 793.46 270.89 C 867.18 305.58 908.60 352.63 908.60 401.70 Z" fill="url(#SVGID_2_)" fill-rule="nonzero" group-id="1" node-id="128" stroke="none" target-height="370" target-width="786.2" target-x="122.39999" target-y="216.70001"/><g node-id="184"><path d="M 781.40 834.10 L 769.80 834.10 L 769.80 778.30 L 773.30 776.80 C 773.60 776.70 802.10 764.20 824.70 750.60 C 842.00 740.20 852.70 731.10 856.60 727.60 L 856.60 579.40 L 868.20 567.80 L 868.20 732.50 L 866.50 734.20 C 866.00 734.70 854.20 746.40 830.70 760.60 C 812.00 771.90 789.90 782.10 781.50 785.90 L 781.50 834.10 Z" fill="#b1a9f7" fill-rule="nonzero" group-id="1,4" node-id="132" stroke="none" target-height="266.29993" target-width="98.39996" target-x="769.80005" target-y="567.8"/></g><path d="M 723.60 846.50 L 723.60 875.50 C 763.70 863.70 799.00 848.60 827.60 831.00 L 827.60 802.40 C 798.00 819.40 762.90 834.30 723.60 846.50 Z" fill="#8b80fb" fill-rule="nonzero" group-id="1" node-id="135" stroke="none" target-height="73.099976" target-width="103.99994" target-x="723.60004" target-y="802.4"/><path d="M 318.90 843.30 L 318.90 872.30 C 278.80 860.50 243.50 845.40 214.90 827.80 L 214.90 799.20 C 244.50 816.20 279.60 831.10 318.90 843.30 Z" fill="#c2bdfc" fill-rule="nonzero" group-id="1" node-id="137" stroke="none" target-height="73.099915" target-width="104" target-x="214.9" target-y="799.2001"/><path d="M 217.20 668.70 C 177.10 648.00 140.30 598.70 122.40 578.60 L 122.40 591.60 C 138.70 611.40 171.00 657.90 211.90 679.00 L 266.90 707.40 L 266.90 824.60 C 270.70 826.20 274.60 827.60 278.50 829.10 L 278.50 700.20 L 217.20 668.70 Z" fill="#b1a9f7" fill-rule="nonzero" group-id="1" node-id="139" stroke="none" target-height="250.5" target-width="156.1" target-x="122.4" target-y="578.6"/><g node-id="185"><path d="M 679.10 677.20 L 679.10 781.20 C 814.40 752.00 908.50 687.70 908.50 613.00 L 908.50 509.00 C 908.50 583.70 814.50 648.00 679.10 677.20 Z" fill="url(#SVGID_3_)" fill-rule="nonzero" group-id="1,5" node-id="143" stroke="none" target-height="272.2" target-width="229.40002" target-x="679.1" target-y="509"/><path d="M 518.60 694.00 C 517.60 694.00 516.60 694.00 515.50 694.00 C 298.40 694.00 122.40 611.20 122.40 509.00 L 122.40 613.00 C 122.40 715.20 298.40 798.00 515.50 798.00 C 516.50 798.00 517.50 798.00 518.60 798.00 L 518.60 694.00 Z" fill="url(#SVGID_4_)" fill-rule="nonzero" group-id="1,5" node-id="145" stroke="none" target-height="289" target-width="396.19998" target-x="122.4" target-y="509"/></g></g><path d="M 197.40 297.90 C 197.40 312.70 185.40 324.70 170.60 324.70 C 155.80 324.70 143.80 312.70 143.80 297.90 C 143.80 283.10 155.80 271.10 170.60 271.10 C 185.40 271.10 197.40 283.10 197.40 297.90 Z" fill="url(#SVGID_5_)" fill-rule="nonzero" node-id="149" stroke="none" target-height="53.599976" target-width="53.600006" target-x="143.8" target-y="271.1"/><path d="M 839.70 388.90 C 839.70 394.58 837.45 400.02 833.43 404.03 C 829.42 408.05 823.98 410.30 818.30 410.30 C 812.62 410.30 807.18 408.05 803.17 404.03 C 799.15 400.02 796.90 394.58 796.90 388.90 C 796.90 383.22 799.15 377.78 803.17 373.77 C 807.18 369.75 812.62 367.50 818.30 367.50 C 823.98 367.50 829.42 369.75 833.43 373.77 C 837.45 377.78 839.70 383.22 839.70 388.90 Z" fill="url(#SVGID_6_)" fill-rule="nonzero" node-id="151" stroke="none" target-height="42.80002" target-width="42.80005" target-x="796.89996" target-y="367.5"/><path d="M 432.90 164.10 C 432.90 175.92 423.32 185.50 411.50 185.50 C 399.68 185.50 390.10 175.92 390.10 164.10 C 390.10 152.28 399.68 142.70 411.50 142.70 C 423.32 142.70 432.90 152.28 432.90 164.10 Z" fill="url(#SVGID_7_)" fill-rule="nonzero" node-id="153" stroke="none" target-height="42.799988" target-width="42.80002" target-x="390.1" target-y="142.70001"/><path d="M 515.50 659.30 L 668.40 731.50 L 518.60 827.90 Z" fill="url(#SVGID_8_)" fill-rule="nonzero" node-id="155" stroke="none" target-height="168.59998" target-width="152.90002" target-x="515.5" target-y="659.3"/><g node-id="182"><g node-id="186"><path d="M 722.00 380.60 C 722.00 433.56 630.71 476.50 518.10 476.50 C 405.49 476.50 314.20 433.56 314.20 380.60 C 314.20 327.64 405.49 284.70 518.10 284.70 C 630.71 284.70 722.00 327.64 722.00 380.60 Z" fill="#6655d7" fill-rule="nonzero" group-id="2,6" node-id="161" stroke="none" target-height="191.79999" target-width="407.80002" target-x="314.19998" target-y="284.7"/><path d="M 722.00 393.40 C 722.00 446.36 630.71 489.30 518.10 489.30 C 405.49 489.30 314.20 446.36 314.20 393.40 C 314.20 340.44 405.49 297.50 518.10 297.50 C 630.71 297.50 722.00 340.44 722.00 393.40 Z" fill="url(#SVGID_9_)" fill-rule="nonzero" group-id="2,6" node-id="163" stroke="none" target-height="191.79996" target-width="407.80002" target-x="314.19998" target-y="297.5"/></g></g><g node-id="183"><path d="M 533.00 383.50 C 533.00 386.21 530.91 388.80 527.20 390.71 C 523.49 392.63 518.45 393.70 513.20 393.70 C 507.95 393.70 502.91 392.63 499.20 390.71 C 495.49 388.80 493.40 386.21 493.40 383.50 C 493.40 380.79 495.49 378.20 499.20 376.29 C 502.91 374.37 507.95 373.30 513.20 373.30 C 518.45 373.30 523.49 374.37 527.20 376.29 C 530.91 378.20 533.00 380.79 533.00 383.50 Z" fill="#ffffff" fill-rule="nonzero" group-id="3" node-id="169" stroke="none" target-height="20.400024" target-width="39.599976" target-x="493.40002" target-y="373.3"/><path d="M 445.00 333.60 L 497.00 389.40 L 513.20 383.50 L 529.40 377.70 Z" fill="#ffffff" fill-rule="nonzero" group-id="3" node-id="171" stroke="none" target-height="55.799988" target-width="84.400024" target-x="445" target-y="333.6"/><path d="M 399.50 393.70 L 376.70 396.20 C 375.90 394.00 375.30 391.70 375.10 389.40 L 398.30 389.00 C 398.50 390.70 398.90 392.20 399.50 393.70 Z" fill="#ffffff" fill-rule="nonzero" group-id="3" node-id="173" stroke="none" target-height="7.200012" target-width="24.399994" target-x="375.1" target-y="389"/><path d="M 403.10 401.30 L 381.30 405.40 C 380.30 404.00 379.50 402.60 378.90 401.10 L 401.50 398.60 C 401.90 399.50 402.50 400.50 403.10 401.30 Z" fill="#ffffff" fill-rule="nonzero" group-id="3" node-id="175" stroke="none" target-height="6.8000183" target-width="24.200012" target-x="378.9" target-y="398.59998"/><path d="M 410.00 410.10 L 389.20 415.40 C 387.60 413.80 386.00 412.00 384.80 410.30 L 406.60 406.20 C 407.60 407.50 408.80 408.90 410.00 410.10 Z" fill="#ffffff" fill-rule="nonzero" group-id="3" node-id="177" stroke="none" target-height="9.199982" target-width="25.200012" target-x="384.8" target-y="406.19998"/><path d="M 651.80 383.50 C 651.80 391.30 649.20 399.00 644.70 406.00 L 622.70 402.20 C 626.50 396.30 628.60 390.10 628.60 383.50 C 628.60 350.70 576.90 324.20 513.10 324.20 C 449.30 324.20 397.60 350.70 397.60 383.50 L 397.60 383.90 L 374.40 384.30 L 374.40 383.50 C 374.40 344.10 436.40 312.30 513.00 312.30 C 589.60 312.30 651.80 344.20 651.80 383.50 Z" fill="#ffffff" fill-rule="nonzero" group-id="3" node-id="179" stroke="none" target-height="93.70001" target-width="277.4" target-x="374.4" target-y="312.3"/></g></svg>