<svg height="1024" node-id="1" sillyvg="true" template-height="1024" template-width="1024" version="1.1" viewBox="0 0 1024 1024" width="1024" xmlns="http://www.w3.org/2000/svg" xmlns:xlink="http://www.w3.org/1999/xlink"><defs node-id="39"><linearGradient gradientUnits="objectBoundingBox" id="SVGID_1_" node-id="5" spreadMethod="pad" x1="190.2511" x2="832.7203" y1="593.0561" y2="593.0561"><stop offset="0.005154639" stop-color="#8574fd"/><stop offset="1" stop-color="#715ef5"/></linearGradient><linearGradient gradientUnits="objectBoundingBox" id="SVGID_2_" node-id="9" spreadMethod="pad" x1="190.2511" x2="832.7203" y1="730.0532" y2="730.0532"><stop offset="0.005154639" stop-color="#7263f3"/><stop offset="1" stop-color="#5042d3"/></linearGradient><linearGradient gradientUnits="objectBoundingBox" id="SVGID_3_" node-id="15" spreadMethod="pad" x1="190.2511" x2="832.7203" y1="484.4032" y2="484.4032"><stop offset="0.005154639" stop-color="#7263f3"/><stop offset="1" stop-color="#5042d3"/></linearGradient><linearGradient gradientUnits="objectBoundingBox" id="SVGID_4_" node-id="21" spreadMethod="pad" x1="190.2511" x2="832.7203" y1="224.581" y2="224.581"><stop offset="0.005154639" stop-color="#c5bafe"/><stop offset="1" stop-color="#e9e6fc"/></linearGradient><linearGradient gradientUnits="objectBoundingBox" id="SVGID_5_" node-id="27" spreadMethod="pad" x1="360.3165" x2="662.655" y1="224.581" y2="224.581"><stop offset="0.005154639" stop-color="#8b7ffd"/><stop offset="1" stop-color="#8a80fb"/></linearGradient></defs><path d="M 190.30 224.60 L 190.30 810.40 C 190.30 893.90 334.10 961.60 511.50 961.60 C 688.90 961.60 832.70 893.90 832.70 810.40 L 832.70 224.60 L 190.30 224.60 Z" fill="url(#SVGID_1_)" fill-rule="nonzero" node-id="74" stroke="none" target-height="737" target-width="642.4" target-x="190.3" target-y="224.6"/><path d="M 511.50 763.10 C 334.10 763.10 190.30 695.40 190.30 611.90 L 190.30 696.90 C 190.30 780.40 334.10 848.10 511.50 848.10 C 688.90 848.10 832.70 780.50 832.70 697.00 L 832.70 612.00 C 832.70 695.40 688.90 763.10 511.50 763.10 Z" fill="url(#SVGID_2_)" fill-rule="nonzero" node-id="76" stroke="none" target-height="236.19995" target-width="642.4" target-x="190.3" target-y="611.9"/><path d="M 511.50 848.20 C 334.10 848.20 190.30 780.50 190.30 697.00 L 190.30 725.30 C 190.30 808.80 334.10 876.50 511.50 876.50 C 688.90 876.50 832.70 808.80 832.70 725.30 L 832.70 697.00 C 832.70 780.50 688.90 848.20 511.50 848.20 Z" fill="#7c72ed" fill-rule="nonzero" node-id="78" stroke="none" target-height="179.5" target-width="642.4" target-x="190.3" target-y="697"/><path d="M 511.50 734.80 C 334.10 734.80 190.30 667.10 190.30 583.60 L 190.30 612.00 C 190.30 695.50 334.10 763.20 511.50 763.20 C 688.90 763.20 832.70 695.40 832.70 612.00 L 832.70 583.70 C 832.70 667.10 688.90 734.80 511.50 734.80 Z" fill="#7c72ed" fill-rule="nonzero" node-id="80" stroke="none" target-height="179.59998" target-width="642.4" target-x="190.3" target-y="583.6"/><path d="M 511.50 517.50 C 334.10 517.50 190.30 449.80 190.30 366.30 L 190.30 451.30 C 190.30 534.80 334.10 602.50 511.50 602.50 C 688.90 602.50 832.70 534.80 832.70 451.30 L 832.70 366.30 C 832.70 449.80 688.90 517.50 511.50 517.50 Z" fill="url(#SVGID_3_)" fill-rule="nonzero" node-id="82" stroke="none" target-height="236.20001" target-width="642.4" target-x="190.3" target-y="366.3"/><path d="M 511.50 602.50 C 334.10 602.50 190.30 534.80 190.30 451.30 L 190.30 479.60 C 190.30 563.10 334.10 630.80 511.50 630.80 C 688.90 630.80 832.70 563.10 832.70 479.60 L 832.70 451.30 C 832.70 534.80 688.90 602.50 511.50 602.50 Z" fill="#7c72ed" fill-rule="nonzero" node-id="84" stroke="none" target-height="179.5" target-width="642.4" target-x="190.3" target-y="451.3"/><path d="M 511.50 489.10 C 334.10 489.10 190.30 421.40 190.30 337.90 L 190.30 366.20 C 190.30 449.70 334.10 517.40 511.50 517.40 C 688.90 517.40 832.70 449.70 832.70 366.20 L 832.70 338.00 C 832.70 421.40 688.90 489.10 511.50 489.10 Z" fill="#7c72ed" fill-rule="nonzero" node-id="86" stroke="none" target-height="179.50003" target-width="642.4" target-x="190.3" target-y="337.9"/><path d="M 832.70 224.60 C 832.70 308.11 688.89 375.80 511.50 375.80 C 334.11 375.80 190.30 308.11 190.30 224.60 C 190.30 141.09 334.11 73.40 511.50 73.40 C 688.89 73.40 832.70 141.09 832.70 224.60 Z" fill="url(#SVGID_4_)" fill-rule="nonzero" node-id="88" stroke="none" target-height="302.39996" target-width="642.4" target-x="190.3" target-y="73.40001"/><g node-id="118"><path d="M 662.70 215.10 C 662.70 254.37 595.01 286.20 511.50 286.20 C 427.99 286.20 360.30 254.37 360.30 215.10 C 360.30 175.83 427.99 144.00 511.50 144.00 C 595.01 144.00 662.70 175.83 662.70 215.10 Z" fill="#6655d7" fill-rule="nonzero" group-id="1" node-id="92" stroke="none" target-height="142.20001" target-width="302.40005" target-x="360.29996" target-y="144"/><path d="M 662.70 224.60 C 662.70 263.87 595.01 295.70 511.50 295.70 C 427.99 295.70 360.30 263.87 360.30 224.60 C 360.30 185.33 427.99 153.50 511.50 153.50 C 595.01 153.50 662.70 185.33 662.70 224.60 Z" fill="url(#SVGID_5_)" fill-rule="nonzero" group-id="1" node-id="94" stroke="none" target-height="142.20001" target-width="302.40005" target-x="360.29996" target-y="153.5"/></g><g node-id="119"><path d="M 783.04 825.27 C 792.53 828.23 796.96 841.10 792.93 854.01 C 788.90 866.93 777.94 875.00 768.45 872.04 C 758.96 869.08 754.53 856.21 758.56 843.29 C 762.59 830.38 773.55 822.31 783.04 825.27 Z" fill="#b1a9f7" fill-rule="nonzero" group-id="2" node-id="99" stroke="none" target-height="52.69635" target-width="42.424683" target-x="754.53174" target-y="822.3063"/></g><g node-id="120"><path d="M 282.82 852.68 C 286.84 865.60 282.42 878.47 272.93 881.43 C 263.44 884.39 252.48 876.32 248.45 863.40 C 244.42 850.48 248.85 837.61 258.34 834.65 C 267.83 831.69 278.79 839.76 282.82 852.68 Z" fill="#b1a9f7" fill-rule="nonzero" group-id="3" node-id="104" stroke="none" target-height="52.69629" target-width="42.424652" target-x="244.42023" target-y="831.69214"/></g><g node-id="121"><path d="M 728.80 508.00 L 719.40 508.00 L 719.40 462.40 L 722.20 461.20 C 722.40 461.10 745.80 450.90 764.20 439.80 C 778.30 431.30 787.10 423.90 790.30 421.00 L 790.30 299.80 L 799.70 290.40 L 799.70 425.00 L 798.30 426.40 C 797.90 426.80 788.20 436.40 769.10 447.90 C 753.80 457.10 735.80 465.50 728.90 468.60 L 728.90 508.00 Z" fill="#b1a9f7" fill-rule="nonzero" group-id="4" node-id="109" stroke="none" target-height="217.6" target-width="80.29993" target-x="719.4001" target-y="290.4"/></g><path d="M 681.60 518.10 L 681.60 541.80 C 714.40 532.10 743.20 519.80 766.60 505.40 L 766.60 482.00 C 742.40 496.00 713.70 508.20 681.60 518.10 Z" fill="#8b80fb" fill-rule="nonzero" node-id="112" stroke="none" target-height="59.799988" target-width="85" target-x="681.6" target-y="482"/><path d="M 350.90 650.40 L 350.90 674.00 C 318.10 664.30 289.30 652.00 265.90 637.60 L 265.90 614.20 C 290.00 628.20 318.70 640.40 350.90 650.40 Z" fill="#c2bdfc" fill-rule="nonzero" node-id="114" stroke="none" target-height="59.799988" target-width="84.99997" target-x="265.9" target-y="614.2"/><path d="M 267.70 507.70 C 234.90 490.80 204.90 450.50 190.20 434.10 L 190.20 444.70 C 203.50 460.90 229.90 498.90 263.30 516.10 L 308.30 539.30 L 308.30 635.00 C 311.40 636.30 314.60 637.50 317.70 638.70 L 317.70 533.50 L 267.70 507.70 Z" fill="#b1a9f7" fill-rule="nonzero" node-id="116" stroke="none" target-height="204.6" target-width="127.500015" target-x="190.2" target-y="434.1"/></svg>