<svg viewBox="0 0 1024 1024" xmlns="http://www.w3.org/2000/svg" fill="#4e5969">
  <g transform="translate(256 280) scale(0.5)" stroke="#4e5969" stroke-width="24" stroke-linecap="round" stroke-linejoin="round">
  <path d="M436.65787221 297.22508631c-22.13660445 0-40.13068629 17.99408185-40.13068629 40.13068628V379.42826667c0 22.13660445 17.99408185 40.13068629 40.13068629 40.1306863s40.13068629-17.99408185 40.1306863-40.1306863v-42.07249408c0-22.13660445-17.99408185-40.13068629-40.1306863-40.13068628zM630.19134407 419.55895297c22.13660445 0 40.13068629-17.99408185 40.1306863-40.1306863v-42.07249408c0-22.13660445-17.99408185-40.13068629-40.1306863-40.13068628s-40.13068629 17.99408185-40.13068629 40.13068628V379.42826667c0 22.13660445 17.99408185 40.13068629 40.13068629 40.1306863z"/>
  <path d="M830.19750741 823.97270928c-0.12945408-1.16508445-0.25890816-2.33016889-0.51781518-3.36579926-6.99050667-38.31833259-26.14967296-74.56540445-53.98224668-101.88016185-10.61521408-10.48576-22.13660445-19.28862037-34.5641711-26.40858112 18.90025927-12.94538297 36.63543296-27.70311851 53.20552221-44.1437548 69.77561259-69.77561259 108.22339925-162.59400704 108.22340039-261.36727781s-38.44778667-191.59166407-108.22340039-261.36727665-162.59400704-108.22339925-261.36727666-108.22339925c-98.77326962 0-191.59166407 38.44778667-261.36727666 108.22339925-69.77561259 69.77561259-108.22339925 162.59400704-108.22340039 261.36727665s38.44778667 191.59166407 108.22340039 261.36727781c16.4406363 16.4406363 34.30526407 31.19837184 53.20552221 44.1437548-12.03920555 7.11996075-23.43114297 15.92282112-33.65799481 26.27912705-26.9263963 27.31475741-45.56774741 64.59745963-52.4288 104.85759999-0.12945408 0.64726926-0.25890816 1.42399261-0.25890703 2.07126072L231.08519481 889.47634519c-2.58907705 22.00715037 13.20428999 41.94304 35.21144149 44.53211704 1.55344555 0.12945408 3.10689223 0.25890816 4.66033778 0.25890816 20.06534371 0 37.4121563-15.0166437 39.87177813-35.47034965l7.24941483-62.91456c10.22685184-58.12476814 51.13426147-84.53334926 84.92171037-84.53334813h2.07126186l48.80409259-2.58907704c0.77672334 0 1.42399261-0.12945408 2.07126073-0.12945408 24.98458851 5.30760704 50.74590037 8.02613703 76.89557333 8.02613703 26.27912704 0 52.0404389-2.71852999 77.15448149-8.02613703 0.77672334 0.12945408 1.55344555 0.12945408 2.45962297 0.25890815l48.28627741 2.58907591h2.07126072c44.66156999 0 79.22574222 41.5546789 87.38133334 82.33263447l6.08433038 64.20909852c1.94180779 20.71261184 19.41807445 36.37652594 39.87177814 36.37652479 1.29453853 0 2.58907705 0 3.88361557-0.12945294 22.00715037-2.07126073 38.31833259-21.61878926 36.11761777-43.7553937l-5.9548763-66.53926741zM466.69116075 671.0877389c-3.10689223-1.29453853-6.47269149-2.07126073-9.96794482-2.45962184-48.67463851-13.07483705-93.33620963-38.83614777-129.9716426-75.47158186-55.14732999-55.14732999-85.56897963-128.41819705-85.56897962-206.4788537s30.42164963-151.3315237 85.56897962-206.47885482S455.16977038 94.62984705 533.23042816 94.62984705s151.3315237 30.42164963 206.47885369 85.56897963c55.14732999 55.14732999 85.56897963 128.41819705 85.56897962 206.47885482S794.7271589 538.0092052 739.57982777 593.02708111c-36.76488704 36.76488704-81.55591111 62.5261989-130.48945778 75.60103595-2.71852999 0.3883611-5.43706112 1.03563037-8.02613703 2.07126074-22.00715037 5.17815296-44.79102407 7.89668295-67.96325888 7.89668294-22.65441963 0-44.92047815-2.58907705-66.40981333-7.50832184z"/>
  </g>
</svg>
